<mxfile host="Electron" modified="2023-09-19T04:59:37.110Z" agent="Mozilla/5.0 (X11; Linux x86_64) AppleWebKit/537.36 (KHTML, like Gecko) draw.io/21.5.0 Chrome/112.0.5615.204 Electron/24.5.1 Safari/537.36" etag="L1VrTF_KrWUrHf9xYe8o" version="21.5.0" type="device">
  <diagram name="Page-1" id="Ak9YK5_zcOqBDPv9MUEP">
    <mxGraphModel dx="1362" dy="852" grid="1" gridSize="10" guides="1" tooltips="1" connect="1" arrows="1" fold="1" page="1" pageScale="1" pageWidth="850" pageHeight="1100" math="1" shadow="0">
      <root>
        <mxCell id="0" />
        <mxCell id="1" parent="0" />
        <mxCell id="5ajm9E82aMMcOB_K5Kz2-14" value="" style="rounded=1;whiteSpace=wrap;html=1;fillColor=none;arcSize=3;" parent="1" vertex="1">
          <mxGeometry x="30" y="30" width="600" height="820" as="geometry" />
        </mxCell>
        <mxCell id="vSbOAeYHZavfsFfB_k8E-10" style="edgeStyle=orthogonalEdgeStyle;rounded=0;orthogonalLoop=1;jettySize=auto;html=1;exitX=0.5;exitY=1;exitDx=0;exitDy=0;entryX=0.5;entryY=0;entryDx=0;entryDy=0;" parent="1" source="vSbOAeYHZavfsFfB_k8E-1" target="vSbOAeYHZavfsFfB_k8E-2" edge="1">
          <mxGeometry relative="1" as="geometry" />
        </mxCell>
        <mxCell id="vSbOAeYHZavfsFfB_k8E-1" value="&lt;font style=&quot;font-size: 18px;&quot;&gt;Gather data&lt;/font&gt;" style="rounded=1;whiteSpace=wrap;html=1;arcSize=25;" parent="1" vertex="1">
          <mxGeometry x="200" y="50" width="200" height="40" as="geometry" />
        </mxCell>
        <mxCell id="jsc-5EGG1AC4uTRYNJJg-2" style="edgeStyle=orthogonalEdgeStyle;rounded=0;orthogonalLoop=1;jettySize=auto;html=1;exitX=1;exitY=0.5;exitDx=0;exitDy=0;entryX=0;entryY=0.5;entryDx=0;entryDy=0;" parent="1" source="vSbOAeYHZavfsFfB_k8E-2" target="jsc-5EGG1AC4uTRYNJJg-1" edge="1">
          <mxGeometry relative="1" as="geometry">
            <Array as="points">
              <mxPoint x="390" y="160" />
              <mxPoint x="390" y="160" />
            </Array>
          </mxGeometry>
        </mxCell>
        <mxCell id="jsc-5EGG1AC4uTRYNJJg-8" value="&lt;font style=&quot;font-size: 18px;&quot;&gt;No&lt;/font&gt;" style="edgeLabel;html=1;align=center;verticalAlign=middle;resizable=0;points=[];" parent="jsc-5EGG1AC4uTRYNJJg-2" vertex="1" connectable="0">
          <mxGeometry x="-0.2431" y="1" relative="1" as="geometry">
            <mxPoint x="15" y="1" as="offset" />
          </mxGeometry>
        </mxCell>
        <mxCell id="jsc-5EGG1AC4uTRYNJJg-5" style="edgeStyle=orthogonalEdgeStyle;rounded=0;orthogonalLoop=1;jettySize=auto;html=1;exitX=0.5;exitY=1;exitDx=0;exitDy=0;entryX=0.5;entryY=0;entryDx=0;entryDy=0;" parent="1" source="vSbOAeYHZavfsFfB_k8E-2" target="jsc-5EGG1AC4uTRYNJJg-4" edge="1">
          <mxGeometry relative="1" as="geometry" />
        </mxCell>
        <mxCell id="jsc-5EGG1AC4uTRYNJJg-6" value="&lt;font style=&quot;font-size: 18px;&quot;&gt;Yes&lt;/font&gt;" style="edgeLabel;html=1;align=center;verticalAlign=middle;resizable=0;points=[];" parent="jsc-5EGG1AC4uTRYNJJg-5" vertex="1" connectable="0">
          <mxGeometry x="-0.2978" y="-1" relative="1" as="geometry">
            <mxPoint x="1" y="2" as="offset" />
          </mxGeometry>
        </mxCell>
        <mxCell id="vSbOAeYHZavfsFfB_k8E-2" value="&lt;font style=&quot;font-size: 18px;&quot;&gt;Is it stationary?&lt;/font&gt;" style="rounded=1;whiteSpace=wrap;html=1;arcSize=27;" parent="1" vertex="1">
          <mxGeometry x="200" y="130" width="200" height="60" as="geometry" />
        </mxCell>
        <mxCell id="jsc-5EGG1AC4uTRYNJJg-3" style="edgeStyle=orthogonalEdgeStyle;rounded=0;orthogonalLoop=1;jettySize=auto;html=1;exitX=0.5;exitY=1;exitDx=0;exitDy=0;entryX=0.75;entryY=1;entryDx=0;entryDy=0;" parent="1" source="jsc-5EGG1AC4uTRYNJJg-1" target="vSbOAeYHZavfsFfB_k8E-2" edge="1">
          <mxGeometry relative="1" as="geometry" />
        </mxCell>
        <mxCell id="jsc-5EGG1AC4uTRYNJJg-1" value="&lt;font style=&quot;font-size: 18px;&quot;&gt;Apply transformations&lt;/font&gt;" style="rounded=1;whiteSpace=wrap;html=1;arcSize=27;" parent="1" vertex="1">
          <mxGeometry x="460" y="130" width="140" height="60" as="geometry" />
        </mxCell>
        <mxCell id="jsc-5EGG1AC4uTRYNJJg-14" style="edgeStyle=orthogonalEdgeStyle;rounded=0;orthogonalLoop=1;jettySize=auto;html=1;exitX=0.5;exitY=1;exitDx=0;exitDy=0;entryX=0.5;entryY=0;entryDx=0;entryDy=0;" parent="1" source="jsc-5EGG1AC4uTRYNJJg-4" target="jsc-5EGG1AC4uTRYNJJg-9" edge="1">
          <mxGeometry relative="1" as="geometry" />
        </mxCell>
        <mxCell id="jsc-5EGG1AC4uTRYNJJg-4" value="&lt;font style=&quot;font-size: 18px;&quot;&gt;List values &lt;br&gt;of \(p\) and \(q\)&lt;/font&gt;" style="rounded=1;whiteSpace=wrap;html=1;arcSize=27;" parent="1" vertex="1">
          <mxGeometry x="200" y="240" width="200" height="60" as="geometry" />
        </mxCell>
        <mxCell id="jsc-5EGG1AC4uTRYNJJg-15" style="edgeStyle=orthogonalEdgeStyle;rounded=0;orthogonalLoop=1;jettySize=auto;html=1;exitX=0.5;exitY=1;exitDx=0;exitDy=0;entryX=0.5;entryY=0;entryDx=0;entryDy=0;" parent="1" source="jsc-5EGG1AC4uTRYNJJg-9" target="jsc-5EGG1AC4uTRYNJJg-10" edge="1">
          <mxGeometry relative="1" as="geometry" />
        </mxCell>
        <mxCell id="jsc-5EGG1AC4uTRYNJJg-9" value="&lt;span style=&quot;font-size: 18px;&quot;&gt;Fit every combination&lt;br&gt;&amp;nbsp;of \(\text{ARMA}(p,q)\)&lt;/span&gt;" style="rounded=1;whiteSpace=wrap;html=1;arcSize=27;" parent="1" vertex="1">
          <mxGeometry x="200" y="340" width="200" height="60" as="geometry" />
        </mxCell>
        <mxCell id="jsc-5EGG1AC4uTRYNJJg-16" style="edgeStyle=orthogonalEdgeStyle;rounded=0;orthogonalLoop=1;jettySize=auto;html=1;exitX=0.5;exitY=1;exitDx=0;exitDy=0;entryX=0.5;entryY=0;entryDx=0;entryDy=0;" parent="1" source="jsc-5EGG1AC4uTRYNJJg-10" target="jsc-5EGG1AC4uTRYNJJg-11" edge="1">
          <mxGeometry relative="1" as="geometry" />
        </mxCell>
        <mxCell id="jsc-5EGG1AC4uTRYNJJg-10" value="&lt;span style=&quot;font-size: 18px;&quot;&gt;Select model with&lt;br&gt;&amp;nbsp;lowest AIC&lt;/span&gt;" style="rounded=1;whiteSpace=wrap;html=1;arcSize=27;" parent="1" vertex="1">
          <mxGeometry x="200" y="440" width="200" height="60" as="geometry" />
        </mxCell>
        <mxCell id="jsc-5EGG1AC4uTRYNJJg-17" style="edgeStyle=orthogonalEdgeStyle;rounded=0;orthogonalLoop=1;jettySize=auto;html=1;exitX=0.5;exitY=1;exitDx=0;exitDy=0;entryX=0.5;entryY=0;entryDx=0;entryDy=0;" parent="1" source="jsc-5EGG1AC4uTRYNJJg-11" target="jsc-5EGG1AC4uTRYNJJg-12" edge="1">
          <mxGeometry relative="1" as="geometry" />
        </mxCell>
        <mxCell id="jsc-5EGG1AC4uTRYNJJg-18" style="edgeStyle=orthogonalEdgeStyle;rounded=0;orthogonalLoop=1;jettySize=auto;html=1;exitX=0.5;exitY=1;exitDx=0;exitDy=0;entryX=0.5;entryY=0;entryDx=0;entryDy=0;" parent="1" source="jsc-5EGG1AC4uTRYNJJg-11" target="jsc-5EGG1AC4uTRYNJJg-13" edge="1">
          <mxGeometry relative="1" as="geometry" />
        </mxCell>
        <mxCell id="jsc-5EGG1AC4uTRYNJJg-11" value="&lt;span style=&quot;font-size: 18px;&quot;&gt;Residual analysis&lt;/span&gt;" style="rounded=1;whiteSpace=wrap;html=1;arcSize=27;" parent="1" vertex="1">
          <mxGeometry x="200" y="540" width="200" height="60" as="geometry" />
        </mxCell>
        <mxCell id="jsc-5EGG1AC4uTRYNJJg-19" style="edgeStyle=orthogonalEdgeStyle;rounded=0;orthogonalLoop=1;jettySize=auto;html=1;exitX=0;exitY=0.5;exitDx=0;exitDy=0;entryX=0;entryY=0.5;entryDx=0;entryDy=0;" parent="1" source="jsc-5EGG1AC4uTRYNJJg-12" target="jsc-5EGG1AC4uTRYNJJg-4" edge="1">
          <mxGeometry relative="1" as="geometry" />
        </mxCell>
        <mxCell id="jsc-5EGG1AC4uTRYNJJg-25" value="&lt;font style=&quot;font-size: 18px;&quot;&gt;No&lt;/font&gt;" style="edgeLabel;html=1;align=center;verticalAlign=middle;resizable=0;points=[];" parent="jsc-5EGG1AC4uTRYNJJg-19" vertex="1" connectable="0">
          <mxGeometry x="-0.2578" y="-1" relative="1" as="geometry">
            <mxPoint y="5" as="offset" />
          </mxGeometry>
        </mxCell>
        <mxCell id="jsc-5EGG1AC4uTRYNJJg-22" style="edgeStyle=orthogonalEdgeStyle;rounded=0;orthogonalLoop=1;jettySize=auto;html=1;exitX=0.5;exitY=1;exitDx=0;exitDy=0;entryX=0.5;entryY=0;entryDx=0;entryDy=0;" parent="1" source="jsc-5EGG1AC4uTRYNJJg-12" target="jsc-5EGG1AC4uTRYNJJg-21" edge="1">
          <mxGeometry relative="1" as="geometry">
            <Array as="points">
              <mxPoint x="180" y="740" />
              <mxPoint x="300" y="740" />
            </Array>
          </mxGeometry>
        </mxCell>
        <mxCell id="jsc-5EGG1AC4uTRYNJJg-12" value="&lt;span style=&quot;font-size: 18px;&quot;&gt;Q-Q plot shows a straight line?&lt;/span&gt;" style="rounded=1;whiteSpace=wrap;html=1;arcSize=27;" parent="1" vertex="1">
          <mxGeometry x="80" y="660" width="200" height="60" as="geometry" />
        </mxCell>
        <mxCell id="jsc-5EGG1AC4uTRYNJJg-20" style="edgeStyle=orthogonalEdgeStyle;rounded=0;orthogonalLoop=1;jettySize=auto;html=1;exitX=1;exitY=0.5;exitDx=0;exitDy=0;entryX=1;entryY=0.5;entryDx=0;entryDy=0;" parent="1" source="jsc-5EGG1AC4uTRYNJJg-13" target="jsc-5EGG1AC4uTRYNJJg-4" edge="1">
          <mxGeometry relative="1" as="geometry" />
        </mxCell>
        <mxCell id="jsc-5EGG1AC4uTRYNJJg-26" value="&lt;font style=&quot;font-size: 18px;&quot;&gt;No&lt;/font&gt;" style="edgeLabel;html=1;align=center;verticalAlign=middle;resizable=0;points=[];" parent="jsc-5EGG1AC4uTRYNJJg-20" vertex="1" connectable="0">
          <mxGeometry x="-0.2387" y="2" relative="1" as="geometry">
            <mxPoint x="2" y="11" as="offset" />
          </mxGeometry>
        </mxCell>
        <mxCell id="jsc-5EGG1AC4uTRYNJJg-23" style="edgeStyle=orthogonalEdgeStyle;rounded=0;orthogonalLoop=1;jettySize=auto;html=1;exitX=0.5;exitY=1;exitDx=0;exitDy=0;entryX=0.5;entryY=0;entryDx=0;entryDy=0;" parent="1" source="jsc-5EGG1AC4uTRYNJJg-13" target="jsc-5EGG1AC4uTRYNJJg-21" edge="1">
          <mxGeometry relative="1" as="geometry">
            <mxPoint x="300" y="770" as="targetPoint" />
            <Array as="points">
              <mxPoint x="420" y="740" />
              <mxPoint x="300" y="740" />
            </Array>
          </mxGeometry>
        </mxCell>
        <mxCell id="jsc-5EGG1AC4uTRYNJJg-24" value="&lt;font style=&quot;font-size: 18px;&quot;&gt;Yes&lt;/font&gt;" style="edgeLabel;html=1;align=center;verticalAlign=middle;resizable=0;points=[];" parent="jsc-5EGG1AC4uTRYNJJg-23" vertex="1" connectable="0">
          <mxGeometry x="0.6463" y="1" relative="1" as="geometry">
            <mxPoint x="-1" as="offset" />
          </mxGeometry>
        </mxCell>
        <mxCell id="jsc-5EGG1AC4uTRYNJJg-13" value="&lt;span style=&quot;font-size: 18px;&quot;&gt;Uncorrelated &lt;br&gt;residuals?&lt;/span&gt;" style="rounded=1;whiteSpace=wrap;html=1;arcSize=27;" parent="1" vertex="1">
          <mxGeometry x="320" y="660" width="200" height="60" as="geometry" />
        </mxCell>
        <mxCell id="jsc-5EGG1AC4uTRYNJJg-21" value="&lt;span style=&quot;font-size: 18px;&quot;&gt;Ready for forecast&lt;/span&gt;" style="text;html=1;strokeColor=none;fillColor=none;align=center;verticalAlign=middle;whiteSpace=wrap;rounded=0;" parent="1" vertex="1">
          <mxGeometry x="220" y="800" width="160" height="40" as="geometry" />
        </mxCell>
      </root>
    </mxGraphModel>
  </diagram>
</mxfile>
